<?xml version="1.0" encoding="UTF-8" standalone="no"?>
<svg
   xmlns:dc="http://purl.org/dc/elements/1.1/"
   xmlns:cc="http://creativecommons.org/ns#"
   xmlns:rdf="http://www.w3.org/1999/02/22-rdf-syntax-ns#"
   xmlns:svg="http://www.w3.org/2000/svg"
   xmlns="http://www.w3.org/2000/svg"
   id="svg8"
   version="1.1"
   viewBox="0 0 172 37"
   height="37mm"
   width="172mm">
  <defs
     id="defs2" />
  <metadata
     id="metadata5">
    <rdf:RDF>
      <cc:Work
         rdf:about="">
        <dc:format>image/svg+xml</dc:format>
        <dc:type
           rdf:resource="http://purl.org/dc/dcmitype/StillImage" />
        <dc:title></dc:title>
      </cc:Work>
    </rdf:RDF>
  </metadata>
  <g
     transform="translate(0,-260)"
     id="layer1">
    <g
       style="fill-rule:nonzero;stroke:none;stroke-opacity:1"
       transform="translate(3.5079126,-23.970736)"
       id="g565">
      <g
         style="fill-rule:nonzero;stroke:none;stroke-opacity:1"
         id="use477"
         transform="matrix(0.75857974,0,0,0.78604191,15.972293,263.19257)">
        <path
           id="path549"
           d="m 61.854,60.914 -1.984,-2.374 0.722,0.97 1.786,2.003 c 2.952,2.792 6.813,4.329 10.884,4.329 8.734,0 15.842,-7.106 15.842,-15.842 0,-8.736 -7.107,-15.842 -15.842,-15.842 -4.73,0 -9.173,2.088 -12.196,5.732 l -0.726,0.942 -3.306,4.439"
           style="fill:none;fill-rule:nonzero;stroke:none;stroke-opacity:1" />
        <path
           id="path551"
           d="m 39.519,40.689 6.938,9.329 0.019,-0.024 -6.83,-9.182 -0.024,-0.032 c -2.973,-4.147 -7.789,-6.622 -12.883,-6.622 -8.735,0 -15.842,7.106 -15.842,15.842 0,8.736 7.106,15.842 15.842,15.842 4.298,0 8.315,-1.689 11.321,-4.759 l 0.976,-1.099 3.899,-5.236"
           style="fill:none;fill-rule:nonzero;stroke:none;stroke-opacity:1" />
        <path
           style="fill:#ffffff;fill-opacity:1;fill-rule:nonzero;stroke:none;stroke-opacity:1"
           id="path553"
           d="m 73.262,28.51 c -6.437,0 -12.48,2.85 -16.582,7.82 l -0.831,1.075 -2.334,3.135 3.52,4.731 3.306,-4.439 0.726,-0.942 c 3.023,-3.644 7.466,-5.732 12.196,-5.732 8.734,0 15.842,7.106 15.842,15.842 0,8.736 -7.107,15.842 -15.842,15.842 -4.07,0 -7.932,-1.537 -10.884,-4.329 L 60.593,59.51 59.871,58.54 59.808,58.463 43.672,36.772 C 39.612,31.584 33.349,28.51 26.738,28.51 14.889,28.51 5.248,38.151 5.248,50 c 0,11.851 9.641,21.49 21.49,21.49 5.857,0 11.331,-2.313 15.414,-6.513 l 1.267,-1.422 3.035,-4.077 -3.52,-4.73 -3.899,5.236 -0.976,1.099 c -3.005,3.069 -7.023,4.759 -11.321,4.759 -8.735,0 -15.842,-7.106 -15.842,-15.842 0,-8.736 7.106,-15.842 15.842,-15.842 5.094,0 9.911,2.475 12.883,6.622 l 0.024,0.032 6.83,9.182 -0.019,0.024 3.52,4.731 0.017,-0.024 6.142,8.257 0.074,0.099 2.104,2.359 0.081,0.076 c 4.018,3.853 9.299,5.974 14.868,5.974 11.85,0 21.49,-9.64 21.49,-21.49 0,-11.849 -9.641,-21.49 -21.49,-21.49 z" />
      </g>
      <path
         id="path530"
         style="font-style:normal;font-variant:normal;font-weight:normal;font-stretch:normal;font-size:medium;line-height:1.25;font-family:sans-serif;-inkscape-font-specification:sans-serif;letter-spacing:0px;word-spacing:0px;fill:#ffffff;fill-opacity:1;fill-rule:nonzero;stroke:none;stroke-width:1.1127727;stroke-opacity:1"
         d="m -1.0348528,286.51744 h 4.390236 v 28.75387 H 19.155887 v 3.69476 H -1.0348528 Z" />
      <path
         id="path536"
         style="font-style:normal;font-variant:normal;font-weight:normal;font-stretch:normal;font-size:medium;line-height:1.25;font-family:sans-serif;-inkscape-font-specification:sans-serif;letter-spacing:0px;word-spacing:0px;fill:#ffffff;fill-opacity:1;fill-rule:nonzero;stroke:none;stroke-width:1.1127727;stroke-opacity:1"
         d="m 96.637037,290.12526 v 12.19268 h 5.520403 q 3.06447,0 4.73797,-1.58657 1.67351,-1.58657 1.67351,-4.52064 0,-2.91233 -1.67351,-4.4989 -1.6735,-1.58657 -4.73797,-1.58657 z m -4.39024,-3.60782 h 9.910643 q 5.45519,0 8.23712,2.47766 2.80367,2.45592 2.80367,7.21563 0,4.80318 -2.80367,7.25911 -2.78193,2.45592 -8.23712,2.45592 h -5.520403 v 13.04031 h -4.39024 z" />
      <path
         id="path538"
         style="font-style:normal;font-variant:normal;font-weight:normal;font-stretch:normal;font-size:medium;line-height:1.25;font-family:sans-serif;-inkscape-font-specification:sans-serif;letter-spacing:0px;word-spacing:0px;fill:#ffffff;fill-opacity:1;fill-rule:nonzero;stroke:none;stroke-width:1.1127727;stroke-opacity:1"
         d="m 119.10983,286.51744 h 4.39024 v 28.75387 h 15.8005 v 3.69476 h -20.19074 z" />
      <path
         id="path540"
         style="font-style:normal;font-variant:normal;font-weight:normal;font-stretch:normal;font-size:medium;line-height:1.25;font-family:sans-serif;-inkscape-font-specification:sans-serif;letter-spacing:0px;word-spacing:0px;fill:#ffffff;fill-opacity:1;fill-rule:nonzero;stroke:none;stroke-width:1.1127727;stroke-opacity:1"
         d="m 143.88641,286.51744 h 20.51675 v 3.69475 h -16.12651 v 9.60636 h 15.45276 v 3.69476 h -15.45276 v 11.758 h 16.51772 v 3.69476 h -20.90796 z" />
    </g>
  </g>
  <style
     type="text/css"
     id="style240">
	.st0{fill:#010202;}
</style>
</svg>
