<svg xmlns="http://www.w3.org/2000/svg" xmlns:xlink="http://www.w3.org/1999/xlink" version="1.1" x="0px" y="0px" viewBox="0 0 100 100" enable-background="new 0 0 100 100" xml:space="preserve"><g><path fill="none" d="M61.854,60.914L59.87,58.54l0.722,0.97l1.786,2.003c2.952,2.792,6.813,4.329,10.884,4.329   c8.734,0,15.842-7.106,15.842-15.842s-7.107-15.842-15.842-15.842c-4.73,0-9.173,2.088-12.196,5.732l-0.726,0.942l-3.306,4.439"></path><path fill="none" d="M39.519,40.689l6.938,9.329l0.019-0.024l-6.83-9.182l-0.024-0.032c-2.973-4.147-7.789-6.622-12.883-6.622   c-8.735,0-15.842,7.106-15.842,15.842s7.106,15.842,15.842,15.842c4.298,0,8.315-1.689,11.321-4.759l0.976-1.099l3.899-5.236"></path><path fill="#F5F5F5" d="M73.262,28.51c-6.437,0-12.48,2.85-16.582,7.82l-0.831,1.075l-2.334,3.135l3.52,4.731l3.306-4.439l0.726-0.942   c3.023-3.644,7.466-5.732,12.196-5.732c8.734,0,15.842,7.106,15.842,15.842s-7.107,15.842-15.842,15.842   c-4.07,0-7.932-1.537-10.884-4.329l-1.786-2.003l-0.722-0.97l-0.063-0.077L43.672,36.772c-4.06-5.188-10.323-8.262-16.934-8.262   c-11.849,0-21.49,9.641-21.49,21.49c0,11.851,9.641,21.49,21.49,21.49c5.857,0,11.331-2.313,15.414-6.513l1.267-1.422l3.035-4.077   l-3.52-4.73l-3.899,5.236l-0.976,1.099c-3.005,3.069-7.023,4.759-11.321,4.759c-8.735,0-15.842-7.106-15.842-15.842   s7.106-15.842,15.842-15.842c5.094,0,9.911,2.475,12.883,6.622l0.024,0.032l6.83,9.182l-0.019,0.024l3.52,4.731l0.017-0.024   l6.142,8.257l0.074,0.099l2.104,2.359l0.081,0.076c4.018,3.853,9.299,5.974,14.868,5.974c11.85,0,21.49-9.64,21.49-21.49   C94.752,38.151,85.111,28.51,73.262,28.51z"></path></g></svg>
